<svg width="32" height="49" viewBox="0 0 32 49" fill="none" xmlns="http://www.w3.org/2000/svg">
<path fill-rule="evenodd" clip-rule="evenodd" d="M7.27179 17.9237C6.38319 17.9237 5.5033 18.0987 4.68234 18.4387C3.86139 18.7788 3.11545 19.2772 2.48712 19.9056C1.85879 20.5339 1.36037 21.2798 1.02031 22.1008C0.680264 22.9217 0.505243 23.8016 0.505243 24.6902C0.505243 25.5788 0.680264 26.4587 1.02031 27.2797C1.36037 28.1006 1.85879 28.8466 2.48712 29.4749C3.11545 30.1032 3.86139 30.6016 4.68234 30.9417C5.5033 31.2817 6.38319 31.4568 7.27179 31.4568H14.0383V17.9237H7.27179ZM14.0383 13.9942H7.27179C5.47684 13.9942 3.75541 13.2812 2.48619 12.0119C1.21697 10.7427 0.503932 9.0213 0.503932 7.22635C0.503932 5.4314 1.21697 3.70997 2.48619 2.44075C3.75541 1.17154 5.47684 0.458496 7.27179 0.458496H14.0383V13.9942ZM17.9678 0.458496V13.9942H24.7343C26.5062 13.9593 28.1938 13.231 29.4346 11.9656C30.6753 10.7001 31.3704 8.99858 31.3704 7.22635C31.3704 5.45412 30.6753 3.75256 29.4346 2.48714C28.1938 1.22172 26.5062 0.493358 24.7343 0.458496H17.9678ZM24.7343 17.9211C22.9582 17.9208 21.2532 18.619 19.9873 19.8648C18.7213 21.1106 17.996 22.8043 17.9678 24.5802V24.7976C17.9895 26.131 18.4047 27.4283 19.1613 28.5265C19.9178 29.6247 20.9821 30.4748 22.2202 30.9701C23.4584 31.4654 24.8153 31.5838 26.1206 31.3104C27.4258 31.0371 28.6212 30.3841 29.5565 29.4335C30.4919 28.483 31.1255 27.2772 31.3778 25.9677C31.6301 24.6583 31.4898 23.3034 30.9746 22.0734C30.4594 20.8434 29.5922 19.793 28.482 19.0542C27.3717 18.3155 26.0679 17.9212 24.7343 17.9211ZM7.27179 35.3862C5.93286 35.3857 4.62386 35.7823 3.51033 36.5258C2.3968 37.2693 1.52877 38.3263 1.01603 39.5631C0.503284 40.8 0.368857 42.1611 0.629751 43.4744C0.890645 44.7877 1.53514 45.994 2.48172 46.941C3.4283 47.8879 4.63445 48.5329 5.94761 48.7943C7.26077 49.0557 8.62195 48.9218 9.85901 48.4095C11.0961 47.8973 12.1534 47.0297 12.8973 45.9164C13.6413 44.8032 14.0383 43.4943 14.0383 42.1554V35.3862H7.27179Z" fill="#574331"/>
</svg>
