<svg width="16" height="18" viewBox="0 0 16 18" fill="none" xmlns="http://www.w3.org/2000/svg">
<path d="M4.23088 0.865045C4.86356 1.08033 5.46525 1.37899 6.02033 1.75326C6.80476 1.5508 7.61143 1.44923 8.42114 1.45096C9.25734 1.45096 10.0641 1.55626 10.8203 1.75241C11.3751 1.37851 11.9765 1.08014 12.6089 0.865045C13.1958 0.663794 14.032 0.337718 14.5289 0.892218C14.8657 1.26924 14.9499 1.90102 15.0097 2.38334C15.0771 2.92171 15.0931 3.62311 14.9162 4.31942C15.5924 5.2 16 6.2504 16 7.39507C16 9.12905 15.0686 10.6346 13.6901 11.6774C13.0264 12.1724 12.2907 12.5608 11.5091 12.8288C11.6893 13.2449 11.7895 13.7052 11.7895 14.1883V16.7358C11.7895 16.961 11.7008 17.177 11.5429 17.3362C11.385 17.4955 11.1708 17.585 10.9474 17.585H5.89486C5.67152 17.585 5.45733 17.4955 5.29941 17.3362C5.14148 17.177 5.05276 16.961 5.05276 16.7358V15.8943C4.24856 15.9936 3.57405 15.9053 3.00058 15.6599C2.40101 15.4035 1.98333 15.0061 1.66923 14.6256C1.37112 14.2656 1.04608 13.4538 0.576186 13.2959C0.47124 13.2606 0.374205 13.2049 0.290621 13.1318C0.207037 13.0588 0.13854 12.9698 0.0890425 12.8701C-0.010923 12.6686 -0.0274346 12.4354 0.04314 12.2217C0.113715 12.008 0.265594 11.8313 0.465367 11.7305C0.665141 11.6296 0.896443 11.613 1.10839 11.6842C1.66923 11.8727 2.03469 12.2803 2.2848 12.608C2.689 13.1345 3.01742 13.8223 3.65741 14.0966C3.92099 14.2096 4.30751 14.2834 4.91213 14.2002L5.05276 14.1713C5.0547 13.7093 5.15012 13.2524 5.33318 12.8288C4.55161 12.5608 3.81589 12.1724 3.15216 11.6774C1.77365 10.6346 0.842288 9.1299 0.842288 7.39507C0.842288 6.2521 1.24902 5.20254 1.92354 4.32282C1.7467 3.62651 1.76186 2.9234 1.82922 2.38419L1.83343 2.35192C1.89491 1.85771 1.96649 1.27604 2.31006 0.892218C2.8069 0.337718 3.64394 0.664644 4.23004 0.865894L4.23088 0.865045Z" fill="#F9F2E6"/>
</svg>
