<svg width="46" height="47" viewBox="0 0 46 47" fill="none" xmlns="http://www.w3.org/2000/svg">
<path d="M0 0.111084V46.1111H46V0.111084H0ZM25.0339 35.9862C25.0339 40.4629 22.4053 42.5067 18.5758 42.5067C15.1159 42.5067 13.1133 40.7209 12.0865 38.5539L15.6088 36.4281C16.2873 37.629 16.9034 38.6459 18.3918 38.6459C19.8079 38.6459 20.7115 38.0907 20.7115 35.9254V21.2317H25.0339V35.9862ZM35.259 42.5067C31.2439 42.5067 28.6465 40.5977 27.3831 38.0907L30.9054 36.0584C31.8304 37.5682 33.0411 38.687 35.167 38.687C36.9528 38.687 38.1044 37.7933 38.1044 36.5513C38.1044 35.0727 36.9331 34.5487 34.9518 33.6763L33.8741 33.2147C30.7526 31.8905 28.6892 30.2164 28.6892 26.6942C28.6892 23.4495 31.1634 20.9852 35.0142 20.9852C37.766 20.9852 39.7374 21.9397 41.1552 24.4451L37.7874 26.6022C37.0481 25.278 36.2464 24.7539 35.0044 24.7539C33.7426 24.7539 32.9409 25.5557 32.9409 26.6022C32.9409 27.8967 33.7426 28.4192 35.6007 29.2307L36.6784 29.6924C40.3551 31.2629 42.4186 32.8762 42.4186 36.4889C42.4186 40.3709 39.3579 42.505 35.2606 42.505L35.259 42.5067Z" fill="#574331"/>
</svg>
