<svg width="13" height="13" viewBox="0 0 13 13" fill="none" xmlns="http://www.w3.org/2000/svg">
<path d="M2.72823 1.91889C2.72805 2.27249 2.58415 2.61154 2.32821 2.86145C2.07226 3.11136 1.72522 3.25166 1.36343 3.25148C1.00165 3.2513 0.65475 3.11067 0.399057 2.86051C0.143364 2.61035 -0.000180722 2.27116 1.70761e-07 1.91755C0.000181063 1.56395 0.144073 1.2249 0.400022 0.974992C0.655971 0.725083 1.00301 0.584784 1.3648 0.584961C1.72658 0.585138 2.07348 0.725775 2.32917 0.975935C2.58486 1.22609 2.72841 1.56528 2.72823 1.91889ZM2.76915 4.23876H0.0409235V12.585H2.76915V4.23876ZM7.07975 4.23876H4.36516V12.585H7.05247V8.20521C7.05247 5.76534 10.3059 5.53869 10.3059 8.20521V12.585H13V7.29859C13 3.18548 8.18468 3.33881 7.05247 5.3587L7.07975 4.23876Z" fill="#F9F2E6"/>
</svg>
